<svg version="1.0" xmlns="http://www.w3.org/2000/svg"
 width="1280.000000pt" height="1280.000000pt" viewBox="0 0 1280.000000 1280.000000"
 preserveAspectRatio="xMidYMid meet">
<g transform="translate(0.000000,1280.000000) scale(0.100000,-0.100000)"
fill="currentColor" stroke="none">
<path d="M6317 12784 c-1 -1 -69 -5 -152 -8 -82 -3 -166 -8 -185 -11 -19 -2
-57 -7 -85 -11 -27 -4 -61 -8 -75 -9 -14 -2 -25 -4 -25 -5 0 -1 -12 -3 -26 -5
-59 -8 -104 -16 -171 -31 -39 -9 -75 -17 -82 -19 -6 -1 -18 -5 -26 -8 -8 -3
-53 -16 -100 -28 -47 -12 -91 -26 -97 -32 -7 -5 -13 -7 -13 -4 0 3 -24 -4 -52
-15 -29 -11 -66 -24 -83 -30 -16 -5 -43 -16 -60 -23 -16 -7 -59 -25 -95 -40
-36 -15 -78 -34 -95 -43 -16 -9 -36 -17 -43 -18 -8 -1 -22 -10 -33 -20 -10 -9
-19 -13 -19 -8 0 5 -4 5 -8 -1 -4 -5 -32 -23 -62 -38 -79 -41 -133 -71 -145
-80 -5 -4 -48 -33 -95 -64 -95 -62 -257 -179 -280 -203 -8 -8 -36 -32 -62 -53
-27 -21 -63 -53 -82 -70 -19 -18 -49 -46 -67 -63 -57 -52 -191 -195 -257 -274
-103 -123 -90 -106 -183 -235 -27 -38 -56 -77 -63 -85 -7 -9 -15 -22 -19 -30
-4 -8 -16 -28 -27 -45 -11 -16 -27 -45 -37 -62 -9 -18 -20 -33 -25 -33 -4 0
-8 -5 -8 -10 0 -6 -18 -40 -40 -76 -33 -54 -136 -259 -170 -339 -92 -211 -193
-554 -215 -727 -2 -15 -9 -53 -14 -85 -6 -32 -13 -78 -15 -103 -3 -25 -7 -67
-10 -95 -28 -256 -20 -694 18 -975 2 -14 7 -52 11 -85 4 -33 9 -64 10 -70 4
-23 22 -119 31 -170 7 -37 45 -192 73 -297 35 -128 88 -281 162 -463 7 -16 12
-33 11 -37 -1 -5 3 -8 8 -8 6 0 10 -7 10 -15 0 -46 288 -542 354 -611 6 -6 22
-26 36 -44 110 -147 316 -366 475 -505 107 -94 112 -98 162 -135 27 -19 50
-38 53 -41 31 -36 427 -301 473 -316 9 -3 17 -9 17 -14 0 -5 4 -9 9 -9 9 0 84
-42 401 -225 74 -43 155 -89 180 -103 25 -14 106 -60 180 -102 141 -81 202
-115 259 -146 19 -11 40 -23 45 -27 28 -21 126 -75 126 -70 0 3 8 -1 18 -9 9
-8 42 -28 72 -44 30 -15 62 -33 70 -40 8 -6 44 -27 80 -46 36 -19 94 -52 130
-73 36 -21 88 -50 115 -65 28 -15 73 -41 101 -58 28 -18 55 -32 59 -32 4 0 19
-8 33 -18 15 -11 52 -32 82 -49 77 -41 194 -116 198 -125 2 -4 10 -8 17 -8 7
0 15 -3 17 -7 2 -5 26 -24 53 -42 28 -19 52 -37 55 -40 3 -4 34 -31 70 -61
257 -217 406 -461 446 -730 8 -51 8 -245 1 -317 -16 -151 -64 -317 -133 -461
-44 -93 -138 -243 -156 -250 -4 -2 -8 -8 -8 -13 0 -12 -54 -73 -148 -167 -80
-80 -206 -177 -274 -211 -23 -12 -50 -26 -58 -31 -53 -31 -204 -81 -287 -96
-13 -2 -35 -6 -50 -9 -29 -6 -176 -18 -203 -17 -44 2 -168 12 -197 17 -104 16
-302 78 -315 99 -4 6 -8 8 -8 3 0 -13 -111 51 -210 121 -77 55 -246 221 -286
282 -111 166 -158 250 -199 360 -21 54 -53 162 -58 195 -3 17 -10 53 -15 80
-20 100 -24 198 -24 664 l0 474 -22 22 -23 23 -1017 0 c-964 0 -1018 -1 -1039
-18 l-22 -18 0 -559 c0 -490 4 -628 21 -773 10 -94 14 -114 40 -260 21 -119
77 -339 114 -445 16 -50 31 -92 31 -95 9 -36 87 -226 125 -304 8 -16 14 -33
14 -38 0 -5 4 -14 10 -21 5 -7 33 -57 61 -112 29 -55 60 -111 70 -124 11 -13
19 -29 19 -37 0 -7 3 -14 8 -16 4 -2 42 -55 84 -118 43 -63 88 -127 100 -142
13 -15 39 -49 58 -75 19 -26 42 -55 50 -63 8 -9 35 -41 60 -71 54 -66 336
-348 405 -406 139 -116 348 -273 364 -273 5 0 11 -3 13 -7 10 -24 278 -172
428 -237 110 -48 123 -53 190 -79 54 -21 233 -79 250 -82 3 0 11 -4 18 -8 6
-5 12 -6 12 -3 0 3 21 -1 48 -9 26 -8 58 -16 72 -19 14 -3 61 -12 105 -21 85
-17 101 -20 180 -30 28 -3 59 -8 70 -10 90 -18 584 -26 735 -12 91 8 186 20
265 32 62 10 76 12 130 25 28 6 61 13 75 16 14 2 50 11 80 19 30 9 64 18 75
19 11 2 21 5 23 6 1 1 7 4 12 5 6 1 12 4 15 5 3 1 8 3 13 4 25 6 127 39 150
48 15 6 32 12 37 14 32 8 227 94 328 145 104 52 313 173 327 188 3 3 38 28 79
55 40 27 79 56 86 63 8 7 18 13 23 13 6 0 12 3 14 8 2 4 35 33 74 64 129 103
348 313 439 422 22 26 55 64 73 84 18 20 39 49 48 65 8 15 19 27 24 27 6 0 10
7 10 15 0 8 3 15 8 15 4 0 23 24 42 53 19 28 37 54 40 57 7 7 82 120 96 145 6
11 41 72 78 135 76 131 122 224 200 405 14 32 70 177 71 185 1 3 16 51 33 107
34 107 70 240 77 283 2 14 6 36 9 50 9 42 15 74 21 105 3 17 7 41 10 55 3 14
7 45 10 69 2 24 7 61 10 81 3 20 8 57 10 81 2 24 7 78 10 119 13 147 7 588 -9
680 -2 14 -7 53 -10 87 -4 34 -15 111 -26 170 -11 59 -22 122 -25 138 -3 17
-9 39 -12 50 -4 11 -8 25 -9 30 -5 25 -27 104 -41 145 -8 25 -16 52 -18 60 -2
8 -16 47 -31 85 -14 39 -29 80 -31 92 -3 13 -10 23 -15 23 -6 0 -8 7 -4 15 3
8 1 15 -4 15 -6 0 -10 5 -10 10 0 21 -96 206 -172 330 -37 62 -177 260 -194
275 -6 6 -26 30 -45 55 -99 130 -301 342 -460 480 -91 79 -98 85 -169 140 -24
19 -51 41 -58 48 -7 6 -35 26 -60 44 -26 17 -55 40 -65 50 -10 10 -24 18 -32
18 -8 0 -15 4 -15 8 0 4 -22 21 -50 37 -27 16 -50 33 -50 37 0 4 -4 8 -9 8 -5
0 -36 17 -68 38 -32 22 -78 50 -103 63 -25 13 -47 27 -50 30 -7 7 -136 80
-195 109 -27 14 -52 27 -55 30 -3 3 -34 20 -70 38 -66 33 -145 75 -280 149
-41 22 -129 70 -195 106 -66 36 -166 92 -223 126 -57 34 -110 61 -118 61 -8 0
-14 4 -14 8 0 5 -19 17 -42 28 -24 10 -45 21 -48 24 -3 3 -39 21 -80 40 -41
19 -76 38 -78 43 -2 4 -9 7 -15 7 -7 0 -38 16 -69 34 -31 19 -76 46 -100 59
-281 160 -598 358 -606 379 -2 4 -8 8 -14 8 -5 0 -15 6 -22 13 -7 6 -30 26
-51 42 -85 67 -221 196 -275 262 -140 169 -228 342 -289 562 -16 58 -32 122
-34 141 -3 19 -8 44 -10 55 -3 11 -8 52 -12 92 -4 40 -8 85 -10 100 -7 46 -5
284 1 343 4 30 7 65 7 78 1 12 5 22 10 22 4 0 6 4 3 8 -13 21 67 286 101 339
8 12 13 23 12 25 -6 6 86 156 140 228 94 127 342 360 382 360 5 0 9 4 9 9 0 5
8 11 18 15 9 3 35 17 57 30 22 13 43 22 48 19 4 -2 7 0 7 5 0 5 8 12 18 15 9
3 53 19 98 35 44 16 96 32 115 36 19 3 45 9 59 11 81 18 306 25 375 13 22 -4
58 -10 80 -14 97 -14 235 -59 326 -105 46 -24 170 -99 179 -109 3 -3 23 -18
45 -35 44 -32 196 -183 233 -230 29 -37 127 -187 127 -194 1 -3 15 -35 33 -71
18 -36 32 -68 32 -72 0 -4 4 -17 9 -30 5 -13 8 -25 8 -28 0 -3 5 -14 11 -26 6
-11 13 -32 16 -45 2 -13 9 -45 15 -72 6 -26 14 -64 17 -85 3 -20 7 -48 10 -62
8 -48 15 -259 20 -670 5 -454 5 -480 -2 -491 -2 -4 0 -10 5 -13 5 -3 6 -21 1
-40 -4 -19 -5 -37 -3 -40 3 -3 6 -103 8 -223 1 -120 6 -230 10 -245 4 -15 16
-29 28 -32 12 -3 474 -6 1027 -6 881 1 1007 3 1025 16 19 14 20 27 20 262 0
153 4 250 10 254 7 5 7 8 0 8 -6 0 -9 53 -8 142 3 169 3 127 0 326 -1 103 2
162 8 162 7 0 7 3 0 8 -9 6 -10 92 -5 297 3 121 -15 410 -35 550 -1 11 -6 43
-10 70 -4 28 -16 95 -27 150 -25 128 -26 133 -33 155 -3 10 -7 27 -9 37 -2 10
-9 36 -15 58 -6 22 -11 45 -12 50 0 6 -5 16 -11 23 -6 6 -8 12 -5 12 3 0 -1
16 -9 35 -8 19 -11 35 -8 35 4 0 1 6 -5 13 -6 8 -12 22 -14 33 -2 10 -9 33
-16 49 -7 17 -29 71 -48 120 -76 187 -276 552 -374 681 -22 28 -39 54 -39 57
0 7 -23 36 -47 62 -7 8 -13 18 -13 23 0 6 -3 12 -7 14 -5 2 -24 23 -43 48 -50
65 -59 75 -125 148 -72 79 -255 266 -255 259 0 -2 -16 11 -35 29 -51 48 -182
154 -191 154 -3 0 -14 8 -23 18 -24 26 -294 203 -307 201 -4 0 -10 3 -13 9
-17 25 -454 252 -486 252 -2 0 -16 5 -32 12 -15 6 -30 12 -33 13 -3 1 -12 5
-20 8 -84 36 -372 118 -463 132 -17 3 -68 12 -112 20 -122 23 -179 29 -370 40
-134 8 -196 11 -198 9z"/>
</g>
</svg>
