<svg width="86" height="27" viewBox="0 0 86 27" fill="none" xmlns="http://www.w3.org/2000/svg">
<path d="M7.12672 27C5.81773 27 4.61783 26.6611 3.527 25.9833C2.46042 25.2803 1.59988 24.364 0.945386 23.2343C0.315132 22.0795 0 20.8117 0 19.431V17.6987C0 17.5732 0.0606094 17.5105 0.181812 17.5105H4.25422C4.35118 17.5105 4.39966 17.5732 4.39966 17.6987V19.431C4.39966 20.2594 4.6663 20.9749 5.19959 21.5774C5.73288 22.1548 6.37526 22.4435 7.12672 22.4435C7.87818 22.4435 8.52056 22.1423 9.05385 21.5397C9.58714 20.9372 9.85378 20.2343 9.85378 19.431C9.85378 18.5021 9.27201 17.6987 8.10846 17.0209C7.72061 16.795 7.1146 16.4435 6.29042 15.9665C5.46624 15.4895 4.69054 15.0377 3.96333 14.6109C2.6301 13.8075 1.63624 12.8033 0.981742 11.5983C0.351488 10.3682 0.0363563 8.98745 0.0363563 7.45607C0.0363563 6.05021 0.363604 4.79498 1.0181 3.69038C1.67259 2.56067 2.53313 1.66946 3.59972 1.01674C4.69054 0.364016 5.86621 0.0376564 7.12672 0.0376564C8.41147 0.0376564 9.58714 0.376569 10.6537 1.05439C11.7445 1.70711 12.6051 2.59833 13.2353 3.72803C13.8898 4.83264 14.2171 6.07531 14.2171 7.45607V10.5439C14.2171 10.6444 14.1686 10.6946 14.0716 10.6946H9.99924C9.90227 10.6946 9.85378 10.6444 9.85378 10.5439L9.81742 7.45607C9.81742 6.57741 9.55078 5.86192 9.01749 5.30962C8.4842 4.75732 7.85394 4.48117 7.12672 4.48117C6.37526 4.48117 5.73288 4.78243 5.19959 5.38494C4.6663 5.96234 4.39966 6.65272 4.39966 7.45607C4.39966 8.28452 4.56934 8.9749 4.90871 9.5272C5.24808 10.0795 5.86621 10.6067 6.76311 11.1088C6.88432 11.1841 7.11461 11.3222 7.45397 11.523C7.81758 11.6987 8.20542 11.9121 8.61751 12.1632C9.0296 12.3891 9.39321 12.59 9.70834 12.7657C10.0477 12.9414 10.2538 13.0544 10.3265 13.1046C11.5385 13.8075 12.496 14.6736 13.199 15.7029C13.902 16.7071 14.2534 17.9498 14.2534 19.431C14.2534 20.8619 13.9262 22.1548 13.2717 23.3096C12.6414 24.4393 11.7809 25.3431 10.6901 26.0209C9.6235 26.6736 8.43571 27 7.12672 27Z" fill="#007AFF"/>
<path d="M18.9477 26.6234C18.8508 26.6234 18.8023 26.5607 18.8023 26.4351L18.8386 0.564853C18.8386 0.464434 18.8871 0.414225 18.9841 0.414225H30.6559C30.7529 0.414225 30.8013 0.476987 30.8013 0.602509V4.82008C30.8013 4.9205 30.7529 4.97071 30.6559 4.97071H23.2019V10.8452H30.6559C30.7529 10.8452 30.8013 10.8954 30.8013 10.9958L30.8377 15.251C30.8377 15.3515 30.7892 15.4017 30.6923 15.4017H23.2019V21.9916H30.6923C30.7892 21.9916 30.8377 22.0544 30.8377 22.1799V26.4728C30.8377 26.5732 30.7892 26.6234 30.6923 26.6234H18.9477Z" fill="#007AFF"/>
<path d="M42.1769 27C40.8679 27 39.6801 26.6611 38.6136 25.9833C37.547 25.3054 36.6864 24.4017 36.0319 23.272C35.4017 22.1172 35.0866 20.8368 35.0866 19.431V7.49372C35.0866 6.13807 35.4017 4.8954 36.0319 3.76569C36.6864 2.61088 37.547 1.69456 38.6136 1.01674C39.7044 0.338912 40.8922 0 42.1769 0C43.5101 0 44.71 0.338912 45.7766 1.01674C46.8675 1.66946 47.728 2.56067 48.3582 3.69038C48.9885 4.82008 49.3036 6.08787 49.3036 7.49372V9.22594C49.3036 9.32636 49.243 9.37657 49.1218 9.37657H45.0494C44.9524 9.37657 44.904 9.32636 44.904 9.22594V7.79498C44.904 6.841 44.6373 6.05021 44.104 5.42259C43.595 4.79498 42.9526 4.48117 42.1769 4.48117C41.4739 4.48117 40.8437 4.78243 40.2862 5.38494C39.7529 5.98745 39.4862 6.69038 39.4862 7.49372V19.431C39.4862 20.2594 39.7529 20.9749 40.2862 21.5774C40.8195 22.1548 41.4497 22.4435 42.1769 22.4435C42.9526 22.4435 43.595 22.1548 44.104 21.5774C44.6373 21 44.904 20.2845 44.904 19.431V17.5858H42.3587C42.2375 17.5858 42.1769 17.523 42.1769 17.3975V13.1799C42.1769 13.0544 42.2375 12.9916 42.3587 12.9916H49.1582C49.2552 12.9916 49.3036 13.0544 49.3036 13.1799V19.431C49.3036 20.8368 48.9764 22.1172 48.3219 23.272C47.6916 24.4017 46.8432 25.3054 45.7766 25.9833C44.71 26.6611 43.5101 27 42.1769 27Z" fill="#007AFF"/>
<path d="M54.0578 26.6234C53.9609 26.6234 53.9124 26.5607 53.9124 26.4351L53.9488 0.564853C53.9488 0.464434 53.9972 0.414225 54.0942 0.414225H65.766C65.863 0.414225 65.9115 0.476987 65.9115 0.602509V4.82008C65.9115 4.9205 65.863 4.97071 65.766 4.97071H58.3121V10.8452H65.766C65.863 10.8452 65.9115 10.8954 65.9115 10.9958L65.9478 15.251C65.9478 15.3515 65.8994 15.4017 65.8024 15.4017H58.3121V21.9916H65.8024C65.8994 21.9916 65.9478 22.0544 65.9478 22.1799V26.4728C65.9478 26.5732 65.8994 26.6234 65.8024 26.6234H54.0578Z" fill="#007AFF"/>
<path d="M71.3466 26.6234C71.2496 26.6234 71.2012 26.5607 71.2012 26.4351L71.2739 0.564853C71.2739 0.464434 71.3224 0.414225 71.4193 0.414225H78.7642C80.0732 0.414225 81.2731 0.753137 82.3639 1.43096C83.479 2.08368 84.3638 2.9749 85.0183 4.1046C85.6728 5.2092 86 6.46444 86 7.87029C86 8.79916 85.8667 9.64017 85.6 10.3933C85.3334 11.1213 85.0183 11.749 84.6546 12.2761C84.291 12.7782 83.9638 13.1548 83.6729 13.4059C84.9819 14.9121 85.6364 16.682 85.6364 18.7155L85.6728 26.4351C85.6728 26.5607 85.6122 26.6234 85.491 26.6234H81.3822C81.2852 26.6234 81.2367 26.5858 81.2367 26.5105V18.7155C81.2367 17.8117 80.9216 17.0335 80.2914 16.3808C79.6853 15.7029 78.9339 15.364 78.037 15.364H75.6372L75.6008 26.4351C75.6008 26.5607 75.5523 26.6234 75.4554 26.6234H71.3466ZM75.6372 10.8452H78.7642C79.5156 10.8452 80.1823 10.5565 80.7641 9.97908C81.3458 9.40167 81.6367 8.69874 81.6367 7.87029C81.6367 7.06695 81.3458 6.37657 80.7641 5.79916C80.2065 5.22176 79.5399 4.93305 78.7642 4.93305H75.6372V10.8452Z" fill="#007AFF"/>
</svg>
