<svg width="inherit" height="inherit" viewBox="0 0 12 22" fill="none" xmlns="http://www.w3.org/2000/svg">
<path d="M6 22C4.89796 22 3.88776 21.7235 2.96939 21.1704C2.07143 20.5968 1.34694 19.8492 0.795922 18.9274C0.26531 17.9851 0 16.9506 0 15.824V14.4106C0 14.3082 0.0510271 14.257 0.153068 14.257H3.58164C3.66327 14.257 3.70408 14.3082 3.70408 14.4106V15.824C3.70408 16.5 3.92857 17.0838 4.37755 17.5754C4.82653 18.0466 5.36735 18.2821 6 18.2821C6.63265 18.2821 7.17347 18.0363 7.62245 17.5447C8.07143 17.0531 8.29592 16.4795 8.29592 15.824C8.29592 15.0661 7.80612 14.4106 6.82653 13.8575C6.5 13.6732 5.98979 13.3864 5.29592 12.9972C4.60204 12.608 3.94898 12.2393 3.33673 11.8911C2.21428 11.2356 1.37755 10.4162 0.826531 9.43296C0.295918 8.42924 0.0306084 7.30261 0.0306084 6.05307C0.0306084 4.90596 0.306119 3.88175 0.857139 2.98045C1.40816 2.05866 2.13265 1.33147 3.03061 0.798883C3.94898 0.266294 4.93878 0 6 0C7.08163 0 8.07143 0.276536 8.96939 0.829609C9.88776 1.3622 10.6122 2.08938 11.1429 3.01117C11.6939 3.91248 11.9694 4.92644 11.9694 6.05307V8.57263C11.9694 8.65456 11.9286 8.69553 11.8469 8.69553H8.41838C8.33674 8.69553 8.29592 8.65456 8.29592 8.57263L8.26531 6.05307C8.26531 5.33613 8.04082 4.75233 7.59184 4.30168C7.14286 3.85102 6.61225 3.6257 6 3.6257C5.36735 3.6257 4.82653 3.87151 4.37755 4.36313C3.92857 4.83426 3.70408 5.39758 3.70408 6.05307C3.70408 6.72905 3.84694 7.29237 4.13265 7.74302C4.41837 8.19367 4.93877 8.62384 5.69388 9.03352C5.79592 9.09497 5.9898 9.20763 6.27551 9.37151C6.58164 9.5149 6.90816 9.68901 7.2551 9.89385C7.60204 10.0782 7.90816 10.2421 8.17347 10.3855C8.45918 10.5289 8.63265 10.621 8.69388 10.662C9.71429 11.2356 10.5204 11.9423 11.1123 12.7821C11.7041 13.6015 12 14.6155 12 15.824C12 16.9916 11.7245 18.0466 11.1735 18.9888C10.6429 19.9106 9.91837 20.648 9 21.2011C8.10204 21.7337 7.10204 22 6 22Z" fill="currentColor"/>
</svg>
