<svg width="252" height="332" viewBox="0 0 252 332" fill="none" xmlns="http://www.w3.org/2000/svg">
<path d="M75.3836 0.0483811C78.4149 -0.0966541 81.283 0.080258 83.6277 0.635128C91.2124 2.43269 99.4695 8.38681 105.236 15.599C106.649 17.3669 107.685 18.9227 109.775 22.3465C109.819 22.4168 112.128 26.1811 113.08 27.5183C113.232 27.7314 113.393 27.9589 113.552 28.2149C113.648 28.3676 114.005 28.9258 113.951 28.8379C114.527 29.7806 114.892 30.2124 115.514 30.5981C117.977 32.1319 120.819 32.8274 125.392 33.312C125.962 33.3724 126.329 33.4252 127.461 33.5328C130.145 33.7889 131.39 33.9229 132.836 34.1921C133.022 34.2273 134.846 34.5305 135.451 34.6327C136.379 34.7887 137.133 34.9162 137.666 35.0722C138.023 35.1777 138.29 35.304 138.502 35.4392C139.004 35.7589 139.281 36.3358 138.865 36.9434C138.335 37.7158 137.736 37.8498 136.359 37.896C136.353 37.8971 135.676 37.9289 135.488 37.9696C134.632 38.1597 133.948 38.2904 132.4 38.5201C132.353 38.5267 129.527 38.9739 128.515 39.2529C126.414 39.8331 124.404 40.2737 121.07 40.9406C120.817 40.9912 117.012 41.7372 115.804 42.0042C115.241 42.1284 114.66 42.2009 113.88 42.2602C113.741 42.2712 113.651 42.28 113.407 42.2976C111.923 42.4031 111.285 42.5063 110.574 42.7744C110.436 42.8261 110.042 42.7426 109.884 42.7744C110.632 43.56 111.405 44.7082 111.918 45.4884C113.812 48.3693 118.651 55.1486 121.723 56.5275C126.06 58.4723 131.401 58.1603 136.069 58.3602C137.158 58.4075 139.341 57.835 140.863 58.0306C140.218 55.1596 140.024 52.4369 140.681 49.7054C140.708 49.5922 140.87 49.646 140.935 49.5592C140.901 49.367 140.695 49.2263 140.79 49.045C143.321 44.2303 145.054 42.3273 148.634 41.5636C153.105 40.611 161.174 44.9533 162.725 49.5592C162.784 49.5175 162.847 49.4461 162.907 49.412C164.134 48.7099 165.445 48.4231 166.829 48.4583C167.989 48.4891 169.211 48.8571 170.424 49.3384C170.315 48.2902 170.182 47.2562 170.17 46.3311C170.131 43.2227 170.654 40.9044 172.022 39.5474C172.937 38.6387 173.805 38.3091 175.654 37.896C176.05 37.8081 176.151 37.7971 176.344 37.7499C178.056 37.3279 179.533 38.4805 180.956 40.6099C181.186 40.9538 181.415 41.3153 181.646 41.7109C181.735 41.8636 182.049 42.4009 182.154 42.591C184.537 46.842 185.524 51.3953 186.367 58.691C190.972 58.5998 195.602 59.1414 200.167 59.6447C204.83 60.1578 209.532 60.3512 214.186 60.8182C215.219 60.9214 218.308 60.5885 219.088 61.6246C220.192 63.0915 214.429 64.7011 213.822 64.889C211.868 65.4944 209.971 65.1857 207.975 65.3659C204.896 65.6439 201.904 66.3339 198.824 66.613C189.803 67.4282 181.018 68.4193 171.949 68.0062C170.287 67.9304 166.659 68.839 164.904 67.9326C164.445 73.0494 162.666 76.7731 159.057 78.4586C154.583 80.5473 149.961 78.1608 147.109 73.434C146.225 71.9694 145.59 70.6058 144.604 68.2633C144.612 68.4017 144.786 68.7819 144.748 68.85C144.543 69.2115 141.519 68.6566 141.153 68.6292C137.8 68.3754 134.139 68.9863 130.803 69.3994C129.413 69.5719 124.985 69.584 124.738 71.6002C124.333 74.9129 126.827 78.908 127.461 82.0889C128.187 85.718 128.684 89.4494 129.205 93.1643C128.497 93.6225 127.912 94.0949 126.772 94.485C125.962 94.7608 125.493 94.8926 123.903 95.3288C117.841 96.9868 112.27 95.7376 104.473 91.8447C104.33 91.7722 102.776 91.0085 102.476 90.8536C100.625 89.9043 99.3096 89.1297 98.19 88.2507C97.5502 87.7463 96.8572 87.3255 95.7213 86.7465C95.5972 86.6839 95.0836 86.4443 94.9585 86.3795C94.6082 86.2015 93.1459 85.3796 92.9609 85.2797C91.8848 84.6984 91.0318 84.3127 90.1646 84.0326C88.8296 83.6019 87.6045 83.5107 86.5687 83.8491C85.534 84.1875 84.6799 84.9292 84.027 86.1598C81.6812 90.5855 84.5394 95.5683 89.8741 100.096C95.5841 104.943 104.52 107.543 113.661 107.834C114.076 107.847 114.48 107.941 114.896 107.945C117.244 107.963 119.148 107.74 123.249 107.101C125.399 106.765 126.273 106.644 127.426 106.514C128.942 106.344 130.262 106.052 131.601 105.78C131.789 106.528 131.857 107.315 132.074 108.055C132.649 110.019 133.242 112.253 134.253 114.105C138.469 113.587 146.782 117.653 149.542 119.13C157.789 123.541 161.069 130.635 165.049 138.677C166.126 140.852 166.967 145.177 168.754 146.782C169.417 147.378 171.319 147.553 172.095 147.882C174.901 149.076 177.331 151.329 179.83 152.98C183.122 155.155 186.912 156.66 190.18 158.958C196.203 163.19 202.266 167.697 207.939 172.417C210.292 174.375 215.57 181.001 218.18 181.88C220.635 182.706 225.384 181.363 227.914 181C232.985 180.269 238.51 180.667 243.566 180.889C244.472 180.929 251.391 179.205 251.301 180.375C250.859 186.159 235.854 187.319 231.472 186.977C229.533 186.826 227.521 186.867 225.552 186.867C225.347 186.867 225.002 186.67 224.936 186.867C224.705 187.566 229.999 189.554 230.382 189.728C235.05 191.841 239.637 194.015 244.292 196.072C244.576 196.198 248.699 198.448 248.613 198.566C248.08 199.284 243.347 197.9 242.695 197.796C236.668 196.834 230.329 194.27 224.572 192.331C222.77 191.725 221.052 190.951 219.27 190.351C219.023 190.268 218.728 189.912 218.543 190.094C218.054 190.59 220.347 194.607 220.614 194.935C223.854 198.964 228.628 202.709 232.598 206.01C232.904 206.265 237.012 209.701 236.774 210.119C235.93 211.61 229.672 209.192 228.386 208.762C222.52 206.786 217.957 204.206 213.605 199.409C212.06 197.707 209.815 192.938 207.576 192.185C201.373 190.095 196.191 188.172 192.396 182.099C191.326 180.388 188.807 172.382 187.493 171.537C186.203 170.708 183.161 170.637 181.682 170.4C178.489 169.89 172.123 167.584 169.117 166.183C164.321 163.947 163.124 153.922 158.403 150.743C153.336 147.329 148.395 143.766 143.369 140.291C141.729 139.158 139.825 138.423 138.102 137.431C138.233 139.122 138.322 140.828 138.356 142.528C137.916 142.524 137.304 142.528 137.304 142.528C135.978 142.502 135.368 142.52 134.616 142.564C129.829 142.849 125.178 143.323 120.852 143.995C111.862 145.391 103.086 147.534 94.9944 150.376C94.6049 150.514 92.3222 151.337 91.8347 151.514C89.749 152.267 88.0843 152.923 86.5687 153.603C86.2281 153.756 86.1552 153.792 85.2249 154.447C85.1194 154.522 85.0171 154.575 84.9344 154.631C84.7386 154.765 84.7135 154.763 84.5721 154.85C82.4635 149.117 80.6062 143.31 80.3592 137.247C80.3538 137.117 80.3309 136.94 80.3223 136.807C79.9218 136.864 79.5095 136.896 79.1972 136.954C75.3684 137.663 71.2697 138.71 67.3571 138.531C65.1517 138.43 62.9147 137.662 60.7843 137.174C60.7299 137.16 60.3186 137.151 59.8769 137.064C61.5862 138.438 62.9647 140.636 64.4891 142.125C66.2854 143.88 67.874 145.905 69.7182 147.626C72.3665 150.096 75.2737 152.251 77.9253 154.814C79.0916 155.941 80.122 157.24 81.1578 158.518C82.7442 160.002 84.3937 161.415 85.843 162.992C86.3086 163.499 86.8363 164.104 87.3314 164.679C87.6882 164.938 88.0495 165.189 88.3487 165.486C88.4488 165.586 88.5391 165.775 88.6392 165.89C88.4814 165.447 88.3248 165.012 88.167 164.569C87.2106 161.886 86.1748 159.147 85.1531 156.427C85.4066 156.292 85.5981 156.314 85.9158 156.098C86.0061 156.036 86.0921 155.994 86.2063 155.914C86.9756 155.371 87.1105 155.3 87.2955 155.217C88.7643 154.558 90.3681 153.903 92.4158 153.164C92.8988 152.989 95.1848 152.2 95.5754 152.063C103.564 149.258 112.255 147.1 121.142 145.719C125.412 145.055 129.99 144.607 134.725 144.325C135.149 144.3 136.809 144.317 138.393 144.325C138.401 156.679 138.576 169.045 138.284 181.403C138.237 183.376 138.207 185.351 138.211 187.344C138.303 188.602 138.478 189.863 138.538 191.121C139.37 208.427 140.503 225.644 140.79 242.979C140.943 252.264 141.556 261.547 142.061 270.814C142.892 273.506 142.52 278.758 142.533 280.386C142.575 285.739 143.533 291.071 143.513 296.412C143.5 299.891 142.76 305.305 144.675 308.442C146.172 310.892 149.681 311.95 151.902 313.43C156.936 316.778 162.435 320.56 168.027 322.891C169.813 323.636 171.697 324.011 173.511 324.689C174.988 325.24 183.389 327.467 179.14 329.42C165.554 335.662 152.386 326.786 140.1 321.534C137.834 320.566 136.131 318.331 133.817 317.427C130.95 316.306 130.236 322.51 128.66 323.955C127.837 324.711 125.147 324.514 124.12 324.542C123.196 324.569 120.958 324.813 120.525 323.735C119.742 321.783 120.834 318.763 120.96 316.731C121.118 314.18 120.907 311.58 120.889 309.028C120.833 302.144 118.51 294.882 117.039 288.198C115.847 282.785 114.417 277.891 111.991 273.088C111.458 272.032 111.514 270.113 112.789 269.75C116.975 268.561 120.86 267.88 125.282 268.321C127 268.492 128.716 268.522 130.439 268.54C130.459 263.458 130.608 258.362 130.404 253.358C130.185 248.02 129.02 242.862 128.624 237.551C127.814 226.662 127.036 215.781 126.227 204.874C126.063 202.676 125.214 197.246 123.83 193.358C123.832 193.231 123.834 193.162 123.83 192.955C123.805 191.548 123.798 191.132 123.758 190.387C123.645 188.329 123.379 186.997 122.813 186.28C122.466 185.842 121.899 185.641 120.78 185.364C120.563 185.31 119.879 185.136 119.907 185.143C119.641 185.079 119.494 185.057 119.436 185.033C119.179 184.931 117.306 184.166 116.929 184.007C115.451 183.377 114.368 182.819 113.552 182.173C109.886 179.267 108.172 175.344 106.652 168.163C106.628 168.05 106.532 167.551 106.507 167.43C106.314 166.518 106.176 165.916 106.108 165.303C106.001 164.357 106.047 163.58 106.216 162.919C106.337 162.448 106.065 161.977 105.598 161.855C105.133 161.733 104.63 162.008 104.509 162.479C104.28 163.377 104.272 164.381 104.401 165.523C104.478 166.206 104.596 166.833 104.8 167.797C104.826 167.92 104.922 168.419 104.946 168.53C106.544 176.083 108.387 180.299 112.463 183.53C113.426 184.294 114.629 184.973 116.239 185.657C116.631 185.823 118.532 186.547 118.782 186.647C118.949 186.714 119.154 186.782 119.508 186.867C119.489 186.863 120.177 187.037 120.379 187.087C121.009 187.243 121.482 187.395 121.47 187.38C121.711 187.687 121.924 188.852 122.014 190.498C122.052 191.197 122.077 193.503 122.087 193.799C122.087 193.806 122.087 193.867 122.087 193.871C121.886 194.745 121.779 195.662 121.47 196.476C120.214 199.79 116.958 203.134 114.751 205.864C110.189 211.508 105.816 217.408 101.859 223.505C97.1727 230.725 93.3493 238.554 88.7121 245.803C85.0965 251.454 80.9826 256.78 77.7446 262.673C72.5384 272.134 67.4268 281.219 61.1478 289.958C55.9132 297.243 51.2575 304.941 46.6573 312.622C46.1306 313.5 42.86 319.962 42.5901 319.958C37.8006 319.86 38.8908 315.143 38.8495 311.632C38.8418 310.998 39.0834 308.077 38.4491 307.671C36.8214 306.628 31.1027 310.982 29.3705 311.632C27.4947 312.336 25.6864 313.806 23.741 314.273C17.6164 315.741 11.2568 313.947 5.65559 311.67C4.33907 311.134 0.756119 310.52 0.207748 309.028C-1.06853 305.551 3.84296 302.93 6.56415 302.427C14.7266 300.912 23.1251 300.84 31.2223 299.017C33.6214 298.476 31.5183 297.775 31.5858 296.193C31.6238 295.321 32.3017 294.78 32.7848 294.139C36.73 288.886 41.2628 283.819 44.442 278.039C45.8771 275.43 46.7878 272.243 47.928 269.494C50.3587 263.631 54.0309 257.307 57.443 252.001C59.8486 248.26 62.498 244.307 65.5423 241.072C67.306 239.196 69.481 237.749 71.1707 235.827C75.017 231.45 78.3159 226.468 81.8118 221.817C83.3416 219.781 85.4774 218.487 87.2226 216.683C89.6729 214.148 91.9294 211.224 94.7399 209.055C95.9443 208.126 99.2084 206.619 99.7883 205.168C100.327 203.817 98.5991 200.174 98.227 198.86C96.7103 193.501 95.0249 188.152 93.6866 182.796C93.3025 181.254 93.1806 179.658 92.9967 178.065C92.4146 176.431 91.8358 174.786 91.2537 173.151C91.1243 174.26 90.75 175.254 89.8013 175.975C88.5141 176.953 85.5263 176.894 83.9541 177.185C79.6194 177.988 74.7667 178.488 70.3721 178.615C69.1937 178.649 66.3692 179.284 65.3965 178.432C64.9145 178.01 64.9341 177.168 64.3792 176.781C62.9724 175.801 59.3753 177.51 58.2786 174.728C57.7824 173.471 61.3828 173.416 62.0193 173.297C63.9484 172.94 65.6501 172.042 67.5389 171.537C70.037 170.871 72.6385 170.716 75.0932 169.887C75.7862 169.653 80.368 168.538 79.4877 167.356C76.6175 163.505 72.4698 160.505 69.0284 157.197C65.4825 153.791 61.6569 149.626 57.2982 147.259C53.5978 145.251 50.0139 143.26 46.4756 140.951C43.2626 138.855 39.6503 138.036 37.2511 135.047C36.273 133.828 34.4962 133.152 35.2535 131.379C35.7986 130.102 39.0519 129.889 40.1203 129.399C43.6195 127.793 46.9543 126.884 50.7972 126.171C52.834 125.794 55.862 125.813 57.6606 124.668C59.1447 123.724 60.2186 121.678 61.1108 120.23C62.2456 118.388 65.3388 115.989 67.3941 115.389C69.4298 114.795 73.7854 114.105 75.9288 115.426C75.7547 114.15 75.6089 112.877 75.3477 111.611C74.4262 107.153 72.8822 102.845 71.8976 98.446C70.8628 93.8181 70.1165 89.144 68.8826 84.5457C68.1939 81.9757 67.0656 79.5837 66.4857 76.9907C65.6294 73.1615 65.5913 68.8654 63.7623 65.3285C62.2075 62.3212 60.2403 59.6392 58.605 56.6374C58.0577 55.6309 57.2014 50.8195 57.3342 48.3858C55.9099 48.8253 54.6663 49.1098 53.4118 49.156C51.4544 49.2263 49.8866 49.3483 46.2939 49.6318C44.4975 49.7746 43.6749 49.8196 42.662 49.8889C39.2009 50.124 36.5146 50.1976 33.9098 50.0723C33.9022 50.0723 31.8022 49.9976 30.8959 49.9625C30.0309 49.9284 29.3248 49.8965 28.7895 49.8526C28.4707 49.8262 28.2205 49.8119 28.0268 49.779C27.9017 49.7581 27.795 49.7361 27.7003 49.7054C27.6057 49.6735 27.5578 49.6405 27.4817 49.5955C27.3087 49.4944 27.1335 49.3582 27.0465 49.1186C26.7777 48.3935 27.1683 47.8529 27.881 47.2486C28.0953 47.0673 28.3238 46.8904 28.6078 46.6981C28.9832 46.4443 29.8536 45.896 29.8068 45.9279C30.1506 45.6982 30.6294 45.4609 31.4411 45.0478C31.6619 44.9357 33.2885 44.1215 33.6193 43.9479C34.6061 43.4315 35.3721 42.9667 35.9803 42.5547C36.7365 42.0416 37.1804 41.612 37.2511 41.3801C37.4285 40.8099 37.472 40.2715 37.5058 39.2167C37.5079 39.1475 37.5036 39.1398 37.5058 39.0706C37.5482 37.7191 37.6222 37.1137 37.8681 36.3193C38.9833 32.7264 40.3858 29.8894 43.5334 24.2539C44.4322 22.6453 45.5246 20.6302 45.8586 19.9995C46.2122 19.3293 47.3928 17.0725 47.4929 16.8824C50.2554 11.6106 52.1529 8.74171 55.1918 5.91682C57.5714 3.70283 59.7844 2.84911 64.5979 1.73608C64.9885 1.64488 65.9199 1.42623 66.1593 1.36909C69.1557 0.650509 72.3523 0.194515 75.3836 0.0483811ZM75.4195 1.80969C72.521 1.95253 69.4712 2.40302 66.5944 3.09303C66.3518 3.15127 65.3878 3.36992 64.9972 3.46002C60.4634 4.50823 58.481 5.29163 56.3898 7.23642C53.5326 9.8954 51.6949 12.617 49.0172 17.7262C48.9204 17.9119 47.7409 20.1292 47.383 20.806C47.0446 21.4477 45.9598 23.4848 45.0589 25.0977C41.97 30.6277 40.6056 33.3944 39.5393 36.8335C39.3554 37.4246 39.2868 37.9509 39.2488 39.1431C39.2466 39.2134 39.252 39.22 39.2488 39.2903C39.2096 40.4956 39.1596 41.1648 38.9213 41.9306C38.6939 42.6635 38.0291 43.2964 36.9607 44.0215C36.2883 44.4775 35.4581 44.9434 34.419 45.4884C34.0785 45.6664 32.4572 46.5135 32.2396 46.6245C31.49 47.0057 31.0537 47.2167 30.7872 47.3947C30.7915 47.3925 30.0255 47.8891 29.661 48.1287C30.0679 48.1528 30.427 48.1803 30.9688 48.2023C31.8589 48.2363 33.9534 48.3111 33.9827 48.3122C36.5092 48.433 39.1519 48.3594 42.5532 48.1287C43.5585 48.0605 44.3583 48.0144 46.1492 47.8716C49.7658 47.5859 51.3489 47.4672 53.3389 47.3947C55.2049 47.3277 56.7879 46.842 60.1674 45.5246C62.3217 44.6852 63.1606 44.3731 64.3074 44.0578C66.0711 43.571 67.9502 43.3194 70.5539 43.1041C71.0968 43.059 74.6579 42.7821 75.4565 42.7008C76.6196 42.5833 77.7806 42.4327 79.4508 42.1504C79.726 42.1042 79.9077 42.057 80.4311 41.9669C83.9694 41.3625 85.6253 41.1615 87.6948 41.0868C89.6489 41.0164 100.879 40.6495 102.984 40.5737C103.663 40.5495 104.248 40.6154 106.181 40.9033C106.396 40.9362 106.401 40.9461 106.616 40.9769C108.48 41.2494 109.514 41.2911 109.957 41.1241C110.878 40.7769 111.611 40.6539 113.261 40.5374C113.505 40.5198 113.602 40.5099 113.734 40.5C114.441 40.4462 114.936 40.4209 115.405 40.3165C116.628 40.0462 120.492 39.2672 120.743 39.2167C124.039 38.5585 125.992 38.0949 128.042 37.5301C129.145 37.2257 130.088 37.0851 132.038 36.7961C132.081 36.7895 133.894 36.4676 134.834 36.283C134.081 36.1633 132.737 35.9885 132.546 35.9523C131.167 35.6952 129.948 35.5447 127.317 35.2931C126.178 35.1843 125.788 35.1337 125.21 35.0722C120.397 34.5624 117.311 33.8097 114.569 32.1023C113.664 31.5386 113.169 30.9112 112.463 29.7553C112.511 29.8344 112.152 29.2741 112.064 29.1312C111.921 28.9038 111.794 28.7247 111.664 28.5445C110.678 27.1623 109.934 25.991 108.359 23.41C108.316 23.3397 108.328 23.3342 108.286 23.2639C106.235 19.9028 105.245 18.3899 103.892 16.6989C98.351 9.76904 90.3931 4.02148 83.2284 2.32281C81.0371 1.8031 78.3203 1.66576 75.4195 1.80969ZM176.779 39.4364C176.571 39.4881 176.425 39.5287 176.017 39.6199C174.473 39.9649 173.866 40.2253 173.257 40.8307C172.327 41.7537 171.881 43.6304 171.913 46.2948C171.927 47.4848 172.028 48.7473 172.204 50.2558C172.23 50.4767 172.37 51.4941 172.386 51.6128C172.507 52.6094 172.638 53.4576 172.967 55.1706C172.98 55.2398 173.159 56.1594 173.22 56.4902C173.243 56.6099 173.439 57.4076 173.439 57.4076C173.548 57.8636 173.618 58.0449 173.656 58.2141C174.262 58.2767 174.88 58.3888 175.472 58.3976C178.561 58.4448 181.56 58.6503 184.624 58.6536C183.808 51.7589 182.837 47.4112 180.63 43.4711C180.022 42.3888 179.867 42.1438 179.503 41.601C178.46 40.0397 177.516 39.2551 176.779 39.4364ZM148.961 43.2876C146.047 43.9084 144.657 45.5048 142.351 49.8889C142.331 49.9284 142.269 49.8911 142.243 49.9251C142.248 50.0174 142.374 50.0515 142.351 50.146C141.313 54.4652 142.161 58.5789 144.748 64.2287C145.139 65.0813 145.291 65.4329 146.092 67.3458C147.124 69.8114 147.733 71.0838 148.598 72.5165C151.04 76.5643 154.767 78.4927 158.294 76.8445C161.709 75.2503 163.307 71.3409 163.343 65.512C163.368 61.2928 162.681 57.0472 161.381 51.3194C161.377 51.3063 161.385 51.2953 161.381 51.2821C161.367 51.2206 161.455 51.1975 161.454 51.1359C161.431 51.0623 161.31 51.07 161.308 50.9887C161.202 47.1651 152.919 42.4437 148.961 43.2876ZM98.0453 44.5709C97.6013 44.5006 96.9703 44.6434 96.0836 45.0851C93.5658 46.3388 92.1438 49.2746 91.3626 51.8699C89.8143 57.0077 88.6882 63.3837 90.5639 68.6665C90.9785 69.8334 91.6966 70.9113 92.1982 72.0397C93.2264 74.3592 96.2957 80.9956 99.389 80.4386C102.747 79.8353 104.541 76.7215 105.671 73.7274C108.017 67.5161 109.089 59.2623 107.343 52.75C106.512 49.657 104.09 45.8268 100.842 44.7917C100.55 44.6983 99.3988 44.7104 98.3358 44.828C98.2259 44.7599 98.1943 44.5951 98.0453 44.5709ZM166.865 50.2196C165.754 50.18 164.693 50.4086 163.742 50.9525C163.689 50.9832 163.627 51.0502 163.488 51.1722C163.452 51.2041 163.453 51.2129 163.415 51.2458C163.315 51.3359 163.274 51.3271 163.197 51.3931C163.794 54.0575 164.223 56.3803 164.541 58.5811C164.558 58.5712 164.559 58.5525 164.577 58.5437C166.239 57.757 168.028 57.6955 169.88 57.8471C170.516 57.8988 171.158 57.9493 171.804 58.0306C171.682 57.5252 171.534 56.9308 171.514 56.8209C171.453 56.4946 171.272 55.5705 171.259 55.5002C170.923 53.7499 170.771 52.8819 170.642 51.8325C170.634 51.7688 170.604 51.4007 170.57 51.0623C170.486 51.0513 170.431 51.1744 170.352 51.1359C169.136 50.5646 167.976 50.258 166.865 50.2196ZM94.9585 14.0948C95.3785 14.03 95.8279 14.0761 96.2653 14.2783C96.2413 14.2673 96.6232 14.4596 96.7015 14.4981C96.9431 14.6233 97.1085 14.698 97.2466 14.9013C97.2608 14.9244 97.2684 14.9519 97.2826 14.9749C97.5665 15.1529 97.782 15.3375 98.227 15.6715C98.4032 15.8056 98.7699 16.0594 98.8439 16.1121C99.9483 16.8966 100.83 17.7262 101.495 18.6063C102.483 19.9116 103.497 22.1003 103.855 23.9968C104.357 26.6503 103.664 28.7401 101.458 29.5718C97.5905 31.031 92.9554 24.8494 92.1982 20.1094C91.9185 18.3613 92.4854 15.5045 93.7236 14.6453C94.1403 14.3552 94.5374 14.1608 94.9585 14.0948ZM95.5396 15.8924C95.3046 15.7836 95.0815 15.8133 94.7039 16.0759C94.1708 16.4451 93.7573 18.6689 93.9412 19.816C94.5483 23.61 98.4239 28.8335 100.842 27.9215C102.092 27.4491 102.51 26.2338 102.149 24.3275C101.843 22.7057 100.943 20.7631 100.115 19.6699C99.5729 18.9535 98.7993 18.2338 97.8276 17.5427C97.7417 17.4812 97.3859 17.2362 97.2097 17.1021C96.7505 16.756 96.4959 16.5659 96.2293 16.4055C96.1619 16.3649 96.1271 16.3616 96.0476 16.3319C96.0215 16.3231 96.0324 16.3011 95.9389 16.2583C95.8507 16.2286 95.8301 16.2275 95.5396 15.8924ZM99.2432 55.8672C99.2486 55.8705 99.2378 55.9001 99.2432 55.9034C99.2671 55.9188 99.2911 55.8913 99.3161 55.9034C99.339 55.9177 99.3661 55.9243 99.389 55.9397L99.4619 56.0869C101.155 59.904 100.407 64.5122 100.442 68.5567C100.45 69.5148 99.7318 72.3144 98.1541 71.5639C96.9986 71.0124 96.8572 69.2445 96.5928 68.1523C96.0215 65.8098 96.3654 63.5738 96.5928 61.2576C96.7081 60.0721 96.5362 58.2504 97.1738 57.1868C97.6732 56.3539 99.1355 55.91 99.2073 55.8672C99.2105 55.8694 99.2399 55.8639 99.2432 55.8672ZM87.6219 85.5368C88.1779 85.4016 88.8405 85.4313 89.6195 85.6829C90.367 85.9246 91.1721 86.3213 92.1622 86.8564C92.3396 86.953 93.2449 87.4563 93.2873 87.4804C93.5517 87.6277 94.8378 88.2628 94.9585 88.3232C95.3252 88.5111 95.4449 88.6429 95.7213 88.8001C95.3241 89.9702 94.9911 91.303 94.668 92.6149C91.4169 90.7097 88.6718 88.6979 86.2063 86.4169C86.6176 85.9697 87.067 85.6708 87.6219 85.5368ZM85.3348 87.9573C87.895 90.2834 90.701 92.3237 94.05 94.2652C94.0903 94.2883 94.1556 94.3147 94.1958 94.3377C93.7965 96.2199 93.5277 98.1812 93.2873 100.169C92.5354 99.6821 91.6564 99.2964 91.0003 98.7394C86.6688 95.0629 84.3686 91.1909 85.3348 87.9573ZM97.2826 89.7175C98.4794 90.6426 99.7949 91.4645 101.677 92.4314C101.983 92.5885 103.568 93.35 103.711 93.4214C103.777 93.4544 103.826 93.4621 103.892 93.495C103.833 93.829 103.76 94.2564 103.711 94.5586C103.565 95.4431 103.489 96.1188 103.456 96.5023C102.787 96.1924 102.13 95.9694 101.458 95.6222C100.618 95.186 98.3282 94.2894 98.2629 94.2652C97.2684 93.8818 96.8419 93.6554 96.2653 93.384C96.5742 92.104 96.905 90.8602 97.2826 89.7175ZM105.563 94.1543C108.137 95.3354 110.652 96.4276 112.898 96.9792C112.973 97.2725 113.037 97.6087 113.008 98.1889C113.001 98.3108 112.984 98.4218 112.971 98.6295C112.933 99.214 112.929 99.4338 112.935 99.7293C110.424 99.2536 107.783 98.3427 105.127 97.2352C105.133 97.1154 105.159 96.8616 105.163 96.7957C105.178 96.5418 105.305 95.7156 105.454 94.8146C105.486 94.6179 105.517 94.441 105.563 94.1543ZM95.83 95.0717C96.3914 95.331 96.7592 95.5738 97.646 95.9156C97.7112 95.9408 97.7265 95.9266 97.7906 95.9518C99.2649 96.5188 99.895 96.8034 100.66 97.1989C101.559 97.6637 102.451 97.9724 103.347 98.3724C103.307 99.2096 103.252 100.073 103.238 100.316C103.185 101.261 102.997 103.554 102.984 103.69C102.955 103.991 102.894 104.189 102.839 104.387C99.9113 103.606 97.2923 102.469 94.8856 101.16C95.1119 99.0954 95.4253 97.0253 95.83 95.0717ZM129.495 95.2179C129.684 96.5254 130.077 97.7703 130.295 99.069C129.668 99.2074 128.825 99.4458 128.26 99.5096C126.971 99.6546 125.669 99.7645 123.975 99.8755C123.849 99.8843 123.154 99.9227 122.741 99.9491C122.739 99.9403 122.742 99.8832 122.741 99.8755C122.619 98.791 122.631 98.0175 122.705 97.2725C123.259 97.1637 123.812 97.1692 124.375 97.0154C126.004 96.5693 126.496 96.4276 127.353 96.1353C128.177 95.854 128.851 95.5409 129.495 95.2179ZM114.605 97.2725C116.783 97.656 118.892 97.8021 120.997 97.5659C120.958 98.3295 120.925 99.0646 121.033 100.059C120.13 100.118 119.3 100.178 118.927 100.206C117.586 100.305 116.151 100.245 114.678 100.059C114.676 99.9711 114.679 99.7744 114.678 99.7293C114.672 99.4942 114.707 98.3943 114.714 98.2625C114.737 97.8362 114.631 97.5978 114.605 97.2725ZM105.054 99.1053C107.746 100.184 110.409 101.073 112.971 101.526C112.981 101.841 113.005 102.22 113.008 102.333C113.046 103.874 113.01 104.946 112.935 106.037C110.055 105.898 107.257 105.434 104.546 104.826C104.609 104.529 104.653 104.227 104.691 103.836C104.706 103.687 104.754 103.059 104.764 102.956C104.839 102.191 104.927 101.357 104.982 100.39C104.991 100.226 105.028 99.6239 105.054 99.1053ZM130.621 100.793C130.821 101.887 131.034 102.975 131.275 104.056C129.981 104.321 128.723 104.587 127.244 104.754C126.159 104.876 125.131 105.057 123.322 105.341C123.264 104.723 123.158 103.461 123.14 103.213C123.12 102.95 123.039 102.36 122.958 101.709C123.319 101.686 123.969 101.643 124.084 101.637C125.802 101.524 127.157 101.418 128.479 101.27C129.101 101.199 129.965 100.942 130.621 100.793ZM121.251 101.819C121.324 102.425 121.367 102.957 121.397 103.36C121.419 103.656 121.559 105.01 121.614 105.524C118.833 105.931 116.782 106.199 114.933 106.183C114.847 106.183 114.764 106.148 114.678 106.147C114.754 105 114.79 103.878 114.751 102.296C114.749 102.234 114.754 101.992 114.751 101.857C116.231 102.026 117.665 102.067 119.036 101.966C119.424 101.938 120.297 101.882 121.251 101.819Z" fill="var(--interactive-accent)"/>
</svg>
