<svg width="178" height="184" viewBox="0 0 178 184" fill="none" xmlns="http://www.w3.org/2000/svg">
<path fill-rule="evenodd" clip-rule="evenodd" d="M2.46809 183.6C0.786227 179.076 1.86964 173.762 1.47271 169C0.548577 157.911 0.809125 146.758 0.809125 135.598C0.809125 129.992 0.366652 124.396 0.366652 118.786C0.366652 114.148 0.8277 109.239 0.366652 104.629C-0.0417276 100.545 0.145541 96.3597 0.145541 92.241C0.145541 90.5826 -0.181926 88.5692 0.145541 86.9321C1.19104 81.7043 0.820322 76.246 1.69382 71.0051C2.33629 67.1505 2.98053 63.1459 3.46346 59.2809C4.02985 54.7518 4.81862 50.2375 5.45447 45.7873C5.96208 42.2338 7.68262 38.8657 8.55128 35.3906C9.5375 31.4465 10.2392 26.3564 12.7544 23.0028C16.7985 17.6104 22.6886 14.8302 28.239 11.5C31.6335 9.46346 34.3379 6.24808 37.7508 4.20008C38.7291 3.61308 40.2446 3.50036 41.2901 2.87291C42.1251 2.37191 42.9177 1.52997 43.9446 1.32438C45.8408 0.945259 47.6196 -0.196932 49.6961 0.218571C53.83 1.04525 55.4472 5.67457 57.6596 8.62431C59.6457 11.2725 59.9638 14.3388 61.42 17.2514C64.9185 24.2486 65.5577 33.0398 66.9503 40.6995C67.6421 44.5039 68.4988 48.7923 68.4988 52.6448C68.4988 56.9487 69.3392 61.6698 70.0471 65.9172C70.9732 71.474 71.602 77.0086 72.7017 82.5079C73.0294 84.1462 73.3652 86.1492 73.3652 87.8168C73.3652 88.6279 73.3652 90.25 73.3652 90.25C73.3652 90.25 73.3652 88.9228 73.3652 88.2593C73.3652 87.0825 73.6922 86.0955 73.8077 84.9411C74.1171 81.8483 74.5978 78.6844 75.3563 75.6504C76.929 69.3596 79.4431 63.3787 83.9834 58.8387C85.1719 57.6502 86.6102 55.4375 88.4073 55.078C89.8004 54.7994 91.1955 54.6974 92.6105 54.4144C96.464 53.6437 99.0366 59.7572 99.9101 62.3779C102.91 71.377 103.45 81.5219 103.45 90.9138C103.45 91.2825 103.398 90.1727 103.45 89.8078C103.576 88.9193 103.674 88.027 103.892 87.1532C104.498 84.7286 104.784 82.26 105.44 79.8533C107.302 73.0276 108.45 66.02 111.413 59.5022C114.261 53.2371 116.318 45.9914 120.04 40.0359C121.237 38.1202 122.722 36.5475 124.022 34.727C125.199 33.0787 126.324 30.6775 128.004 29.4178C133.054 25.6302 139.351 22.6224 145.037 20.3485C148.108 19.1198 151.741 18.6839 154.77 17.4728C158.39 16.0248 161.827 14.6576 165.609 13.7121C166.164 13.5735 166.824 13.8511 167.379 13.7121C167.823 13.6009 171.5 12.773 171.582 12.8274C172.039 13.132 173.137 14.9464 173.351 15.4818C174.228 17.6725 173.675 20.0933 174.236 22.3392C175.87 28.8751 175.117 36.0358 176.448 42.6905C178.358 52.2387 178.089 62.785 177.112 72.5536C176.621 77.4661 177.281 82.4811 176.669 87.3743C175.985 92.8474 174.787 98.4563 174.236 103.965C172.899 117.342 171.528 131.039 168.485 144.225C166.963 150.82 165.844 157.596 164.061 164.134C163.103 167.644 161.774 171.214 161.185 174.752C160.792 177.108 160.323 179.504 159.858 181.83C159.768 182.278 159.526 182.712 159.415 183.157C159.38 183.3 159.563 183.6 159.415 183.6C159.404 183.6 158.776 180.896 158.752 180.724C158.325 177.736 158.088 174.469 158.088 171.434C158.088 164.456 158.629 156.86 157.646 149.976C156.833 144.287 156.539 138.356 156.539 132.501C156.539 128.104 155.876 123.862 155.876 119.45C155.876 117.806 155.663 116.409 155.433 114.804C155.381 114.439 155.433 114.067 155.433 113.698C155.433 113.551 155.433 113.108 155.433 113.256C155.433 122.303 154.12 131.061 153 140.022C152.638 142.922 151.552 145.847 150.788 148.649C149.719 152.569 149.021 156.818 148.355 160.815C148.008 162.899 147.157 164.906 146.806 167.009C146.151 170.939 145.329 174.909 144.373 178.733C144.32 178.947 144.266 182.051 143.931 182.051C143.139 182.051 143.046 176.465 143.046 175.857C143.046 169.179 143.544 162.092 142.603 155.506C141.622 148.634 142.349 141.642 141.719 134.713C141.087 127.762 141.276 120.71 141.276 113.698C141.276 109.321 140.94 104.789 141.276 100.426C141.691 95.0348 141.873 89.2043 141.276 83.835C140.958 80.9736 141.527 78.0381 141.055 75.2079C140.877 74.1377 141.268 72.9533 141.055 71.8897C140.102 67.1251 140.242 62.0752 139.285 57.2901C138.993 55.8309 138.919 54.3534 138.622 52.8659C138.589 52.7043 138.565 52.4234 138.401 52.4234C138.089 52.4234 137.126 55.2029 137.073 55.5205C136.542 58.7089 135.65 61.9548 134.419 65.0323C133.433 67.4971 133.07 70.2438 131.985 72.7747C129.428 78.7408 127.802 84.8645 126.234 91.135C124.72 97.1907 123.096 103.268 122.474 109.495C121.976 114.47 120.712 119.402 119.819 124.316C118.538 131.36 117.334 138.347 115.837 145.331C114.619 151.016 112.278 156.478 110.971 162.143C110 166.351 108.276 170.526 107.431 174.752C107.336 175.229 107.281 178.22 106.989 178.512C106.697 178.804 103.706 178.859 103.228 178.955C99.9748 179.605 96.6268 180.131 93.274 180.503C83.9772 181.536 74.3474 180.764 65.1806 179.618C61.6098 179.172 58.1242 179.242 54.5628 178.733C52.2326 178.4 49.7513 179.079 47.4839 178.512C46.7829 178.337 47.8231 172.363 47.9264 171.434C48.8215 163.378 48.3689 155.028 48.3689 146.879C48.3689 139.883 48.9495 132.612 48.3689 125.643C47.9035 120.058 47.4582 114.005 47.9264 108.389C48.5531 100.869 49.0699 93.341 49.6961 85.826C50.0619 81.4354 49.4788 76.9376 49.9172 72.5536C50.3342 68.3833 50.2823 64.0481 49.6961 59.9447C48.8304 53.886 48.818 47.6185 48.1475 41.5845C48.0847 41.0178 47.7335 35.5153 47.4839 35.3906C47.3366 35.3168 47.1583 35.4952 47.0415 35.6117C45.5479 37.1053 43.9599 38.8306 42.8386 40.6995C39.2298 46.714 35.2662 52.7137 33.3268 59.5022C31.5192 65.8279 29.9386 72.2271 29.1237 78.7472C28.2675 85.5975 29.1494 92.7514 28.0176 99.541C27.6367 101.826 28.0176 104.532 28.0176 106.841C28.0176 109.748 27.8629 112.591 27.5751 115.468C27.3492 117.729 27.8263 120.067 27.5751 122.325C26.8983 128.418 26.6719 134.558 26.0269 140.685C25.7442 143.37 24.8134 145.969 24.4783 148.649C23.431 157.028 21.9446 165.702 19.6119 173.867C19.0803 175.727 18.7142 177.653 17.8422 179.397C17.5929 179.895 17.5262 180.219 17.3998 180.724C17.3598 180.884 17.326 181.24 17.1784 181.167C16.7133 180.934 16.7362 177.947 16.7362 177.627C16.7362 173.854 16.5148 170.124 16.5148 166.346C16.5148 151.64 16.5148 137.009 16.5148 122.325C16.5148 117.9 16.2937 113.445 16.2937 109.053C16.2937 107.332 16.2578 105.813 15.8512 104.186C15.7571 103.809 15.8512 103.249 15.8512 102.859C15.8512 102.712 15.983 102.351 15.8512 102.417C15.1795 102.752 14.9169 105.269 14.7452 105.956C13.8564 109.511 13.2091 113.206 12.3119 116.795C9.67134 127.357 9.00215 138.202 7.22411 148.87C6.56002 152.855 7.00377 157.05 6.33942 161.037C6.03892 162.839 6.4211 164.749 6.11806 166.567C5.56057 169.912 5.012 173.581 5.012 176.964C5.012 179.857 4.02247 181.213 2.57877 183.379C2.4289 183.604 2.67113 184.146 2.46809 183.6Z" fill="#D7510D"/>
<path fill-rule="evenodd" clip-rule="evenodd" d="M92.7732 77.0314C91.8682 76.868 90.9977 77.4774 90.8346 78.3825C90.6324 79.5035 90.5568 80.6587 90.541 82.181C90.5372 82.5718 90.5466 84.6427 90.541 85.0399C90.5367 85.361 90.4927 85.6885 90.3647 86.3322C90.3535 86.389 90.356 86.392 90.3451 86.4498C90.1535 87.4067 90.0797 87.8518 90.0711 88.4665C90.067 88.7629 90.0026 89.111 89.8754 89.6413C89.8512 89.7415 89.8428 89.8283 89.797 90.0135C89.5713 90.9206 89.4703 91.3397 89.425 91.9127C89.3362 93.0325 89.1993 94.0988 88.9943 95.3003C88.6098 93.9497 88.4638 93.1123 87.8584 91.1687C87.8014 90.986 86.8544 87.921 86.5269 86.8022C86.2684 85.9195 85.3339 85.4079 84.4515 85.6666C83.5688 85.9251 83.0767 86.8594 83.3352 87.7421C83.6701 88.8845 83.9505 89.8125 84.569 91.7954C84.6258 91.9778 84.6301 91.9653 84.6863 92.1478C86.114 96.732 86.744 99.0363 87.3101 101.801C87.3508 102 87.462 102.297 87.506 102.486C86.6384 106.416 86.1985 108.789 86.057 111.396C86.0043 112.365 85.9231 113.39 85.8025 114.568C85.7226 115.345 85.1054 120.812 84.9998 122.145C84.8713 123.766 84.87 125.299 84.9802 127.745C84.9893 127.95 85.0016 128.105 85.0194 128.47C85.0611 129.363 85.0186 129.607 85.039 130.232C84.7609 130.16 84.4934 130.047 84.1968 130.134C73.4799 133.274 63.9562 141.318 62.2664 150.674C62.1031 151.58 62.6926 152.449 63.5979 152.613C64.5032 152.776 65.3734 152.167 65.5365 151.262C66.9637 143.359 75.4778 136.15 85.0975 133.326C85.0924 133.445 85.1041 133.654 85.0975 133.776C85.0578 134.508 85.0807 135.243 85.1367 136.244C85.1466 136.42 85.1372 136.564 85.1563 136.87C85.2415 138.25 85.2715 138.828 85.2346 139.513C85.0392 143.11 85.1746 145.611 85.9005 148.09C86.1415 148.913 86.5053 149.84 86.9381 150.635C87.747 152.122 88.7154 153.062 90.169 152.965C92.3748 152.819 93.2877 151.77 94.32 149.441C94.3393 149.397 94.5594 148.946 94.6335 148.795C95.1299 147.785 95.2418 146.889 95.2795 145.349C95.2818 145.257 95.3082 144.625 95.3187 144.428C95.3276 144.263 95.3398 144.117 95.3579 143.802C95.4749 141.679 95.5075 140.632 95.5146 139.376C95.5248 137.666 95.4469 136.151 95.2403 134.716C95.1887 134.357 95.2306 133.739 95.2403 133.248C95.4141 133.315 95.5945 133.387 95.867 133.541C96.038 133.638 96.2217 133.753 96.4153 133.874C96.7957 134.112 97.7766 134.764 97.8249 134.795C100.238 136.305 103.253 141.413 103.719 144.644C103.759 144.92 103.958 145.098 104.11 145.309C104.122 145.384 104.069 145.45 104.091 145.525C104.213 145.943 104.336 146.298 104.561 146.915C104.585 146.981 104.927 147.972 105.031 148.325C105.289 149.207 106.224 149.719 107.106 149.461C107.989 149.202 108.501 148.268 108.242 147.385C108.112 146.94 107.989 146.596 107.733 145.897C107.709 145.831 107.38 144.915 107.283 144.585C107.236 144.427 107.074 144.364 106.989 144.233C106.987 144.21 107.012 144.196 107.008 144.174C106.41 140.021 102.881 134.036 99.5872 131.975C99.6009 131.983 98.6208 131.332 98.1776 131.054C97.9442 130.909 97.7097 130.766 97.4921 130.643C96.896 130.307 96.3787 130.057 95.8866 129.919C95.6403 129.85 95.4176 129.894 95.1815 129.88C95.1563 129.515 95.2179 128.976 95.1426 128.607C94.5482 125.704 94.2162 123.036 93.7327 117.799C93.7075 117.525 93.7185 117.524 93.6935 117.25C93.3241 113.236 93.1287 111.441 92.8124 109.242C92.6185 107.896 92.3252 106.822 91.6181 104.679C91.5967 104.615 91.5799 104.607 91.5593 104.542C91.1937 103.434 91.0967 102.962 90.9326 102.349C90.9876 102.105 90.9909 102.002 91.0502 101.742C91.0657 101.674 91.0736 101.674 91.0893 101.605C92.1282 97.0353 92.5402 94.8657 92.7536 92.1673C92.7796 91.8396 92.847 91.5432 93.0277 90.8163C93.0763 90.6216 93.0989 90.5376 93.1256 90.4247C93.3053 89.6746 93.392 89.1219 93.3999 88.5253C93.4045 88.1848 93.445 87.8706 93.5956 87.1154C93.6073 87.0574 93.6231 87.0566 93.6348 86.9979C93.8012 86.1638 93.862 85.6633 93.8696 85.0791C93.8755 84.6565 93.8663 82.5912 93.8696 82.2202C93.8831 80.8691 93.9615 79.872 94.1243 78.97C94.2877 78.0647 93.6785 77.1947 92.7732 77.0314ZM70.6078 96.6318C70.4572 96.6338 70.4421 96.6331 70.0986 96.7099C69.8452 96.7959 69.8493 96.8066 69.4526 97.1017C69.2463 97.3534 69.2837 97.575 69.2175 97.7282C68.4857 98.0009 68.198 98.4345 67.0833 100.802C66.5098 102.021 65.937 103.357 65.7518 103.916C64.4798 107.747 63.8345 112.047 63.7742 116.526C63.7643 117.253 63.8781 117.745 64.205 118.817C64.2455 118.949 64.2615 119.019 64.2834 119.091C64.4129 119.524 64.4643 119.794 64.479 120.011C64.6793 123.025 66.8568 126.296 69.805 126.336C71.3454 126.356 72.2774 125.614 73.5059 124.064C73.556 124.001 73.7924 123.677 73.8583 123.594C73.9802 123.441 74.0873 123.337 74.1715 123.242C74.2537 123.15 74.3117 123.074 74.3674 123.027C77.2291 120.53 78.5856 115.066 78.4596 109.946C78.4176 108.24 78.2019 106.579 77.8332 105.071C77.6306 104.242 77.55 103.874 77.4024 103.387C76.765 101.284 75.8007 99.8169 74.3478 99.0793C74.1781 98.8376 74.058 98.5024 73.8779 98.2961C73.7776 98.1813 73.5845 98.1203 73.4667 98.0218C72.7418 97.1506 71.8401 96.6086 70.6078 96.6318ZM106.871 98.1981C106.126 98.0572 105.308 98.0956 104.424 98.3549C100.511 99.5011 99.0294 104.789 99.1371 110.514C99.1475 111.078 99.2658 111.676 99.5091 112.453C99.5533 112.594 99.9467 113.772 99.979 113.882C100.868 116.918 103.36 119.807 106.284 119.208C107.66 118.927 108.638 117.933 109.632 116.33C109.885 115.922 110.517 114.769 110.533 114.744C111.798 112.621 112.807 109.206 112.843 106.402C112.882 103.373 111.81 101.05 109.613 100.019C108.851 99.1017 107.968 98.4055 106.871 98.1981ZM71.8217 102.153C71.8757 102.329 71.907 102.352 71.9981 102.663C72.4194 104.101 72.5329 105.675 72.3896 107.479C72.2734 108.949 72.0462 110.244 71.5085 112.805C71.1704 114.417 71.0795 114.877 70.9406 115.644C70.8256 116.282 70.4839 117.341 70.1182 118.151C69.9406 118.545 69.7681 118.82 69.6094 119.032C69.046 118.805 68.3952 117.788 68.3756 116.741C68.3534 115.556 68.4234 114.338 68.5911 112.962C68.7516 111.644 68.9025 110.751 69.3938 108.028C69.4254 107.853 69.6386 106.539 69.6679 106.383C69.8348 105.479 70.0246 104.898 70.275 104.562C70.3315 104.486 70.3948 104.41 70.4513 104.327C70.5839 104.129 70.7172 103.91 70.8821 103.622C70.9274 103.543 71.1999 103.068 71.2541 102.976C71.492 102.57 71.6495 102.344 71.8217 102.153ZM107.087 102.761C107.298 102.772 107.453 102.835 107.635 102.878C107.856 103.318 108.056 103.849 108.222 104.503C108.819 106.847 108.67 109.786 108.027 110.965C107.965 111.077 107.561 111.844 107.439 112.061C106.87 113.077 106.479 113.437 106.127 113.432C104.886 113.415 104.351 112.492 104.404 110.24C104.451 108.225 105.111 105.549 105.794 104.033C106.172 103.197 106.7 102.739 107.087 102.761ZM89.5619 110.064C89.8444 112.066 90.0174 113.784 90.3647 117.563C90.3899 117.837 90.398 117.838 90.4235 118.112C90.9176 123.468 91.2461 126.212 91.8725 129.273C92.0051 129.921 92.0206 130.557 91.9313 131.975C91.9295 132.002 91.9135 132.006 91.9117 132.034C91.8142 133.587 91.8193 134.274 91.9509 135.186C92.1315 136.44 92.1951 137.801 92.1857 139.357C92.1786 140.54 92.1427 141.556 92.0292 143.625C92.0117 143.941 91.9987 144.086 91.9901 144.252C91.9768 144.495 91.9529 145.183 91.9509 145.27C91.9242 146.355 91.8588 146.876 91.6377 147.326C91.5387 147.528 91.4613 147.703 91.3242 148.011C91.3048 148.056 91.3051 148.046 91.285 148.09C90.8122 149.156 90.5688 149.434 90.1886 149.539C90.0853 149.413 89.9805 149.279 89.8558 149.049C89.553 148.493 89.2716 147.764 89.092 147.15C88.4961 145.116 88.3859 142.94 88.5635 139.69C88.6101 138.831 88.5785 138.166 88.4851 136.655C88.4666 136.354 88.4546 136.216 88.4459 136.048C88.3958 135.16 88.3945 134.536 88.4263 133.953C88.5126 132.366 88.4793 131.115 88.348 128.313C88.3309 127.951 88.3175 127.79 88.3088 127.589C88.2042 125.27 88.1946 123.868 88.3088 122.419C88.4101 121.141 88.5266 120.101 88.7983 117.759C88.963 116.341 89.0296 115.698 89.1116 114.9C89.2378 113.673 89.3301 112.619 89.3858 111.591C89.4133 111.084 89.5141 110.556 89.5619 110.064Z" fill="white"/>
</svg>
